#VRML V2.0 utf8
# 3D model generated by easyeda2kicad.py (https://github.com/uPesy/easyeda2kicad.py)

Shape{
    appearance Appearance {
        material  Material 	{
            diffuseColor 0.6666666666666666 0.6666666666666666 0.6666666666666666
            specularColor 0.4666666666666667 0.4666666666666667 0.4666666666666667
            ambientIntensity 0.6667
            transparency 0.0
            shininess 0.5
        }
    }
    geometry IndexedFaceSet {
        ccw TRUE
        solid FALSE
        coord DEF co Coordinate {
            point [
                -1.378 0.5906 0.1575, -1.9882 0.5906 0.1575, -1.378 -0.5906 0.1575, -1.9882 -0.5906 0.1575, -1.378 0.5906 0.0, -1.378 -0.5906 0.0, -1.9882 0.5906 0.0, -1.9882 -0.5906 0.0, -2.0228 -0.5906 0.0034, -2.0228 0.5906 0.0034, -2.056 -0.5906 0.0135, -2.056 0.5906 0.0135, -2.0866 -0.5906 0.0299, -2.0866 0.5906 0.0299, -2.1135 -0.5906 0.0519, -2.1135 0.5906 0.0519, -2.1355 -0.5906 0.0787, -2.1355 0.5906 0.0787, -2.1519 -0.5906 0.1094, -2.1519 0.5906 0.1094, -2.162 -0.5906 0.1426, -2.162 0.5906 0.1426, -2.1654 -0.5906 0.1772, -2.1654 0.5906 0.1772, -2.1654 0.5906 0.8071, -2.1654 -0.5906 0.8071, -2.162 -0.5906 0.8417, -2.162 0.5906 0.8417, -2.1519 -0.5906 0.8749, -2.1519 0.5906 0.8749, -2.1355 -0.5906 0.9055, -2.1355 0.5906 0.9055, -2.1135 -0.5906 0.9324, -2.1135 0.5906 0.9324, -2.0866 -0.5906 0.9544, -2.0866 0.5906 0.9544, -2.056 -0.5906 0.9708, -2.056 0.5906 0.9708, -2.0228 -0.5906 0.9808, -2.0228 0.5906 0.9808, -1.9882 -0.5906 0.9843, -1.9882 0.5906 0.9843, -1.9685 0.5906 0.9843, -1.9685 -0.5906 0.9843, -1.9685 0.5906 0.8268, -1.9685 -0.5906 0.8268, -1.9882 0.5906 0.8268, -1.9882 -0.5906 0.8268, -1.9926 0.5906 0.8263, -1.9926 -0.5906 0.8263, -1.9967 0.5906 0.8248, -1.9967 -0.5906 0.8248, -2.0005 0.5906 0.8225, -2.0005 -0.5906 0.8225, -2.0036 0.5906 0.8194, -2.0036 -0.5906 0.8194, -2.0059 0.5906 0.8156, -2.0059 -0.5906 0.8156, -2.0074 0.5906 0.8115, -2.0074 -0.5906 0.8115, -2.0079 0.5906 0.8071, -2.0079 -0.5906 0.8071, -2.0079 0.5906 0.1772, -2.0079 -0.5906 0.1772, -2.0074 0.5906 0.1728, -2.0074 -0.5906 0.1728, -2.0059 0.5906 0.1686, -2.0059 -0.5906 0.1686, -2.0036 0.5906 0.1649, -2.0036 -0.5906 0.1649, -2.0005 0.5906 0.1618, -2.0005 -0.5906 0.1618, -1.9967 0.5906 0.1594, -1.9967 -0.5906 0.1594, -1.9926 0.5906 0.158, -1.9926 -0.5906 0.158, 1.9882 0.5906 0.1575, 1.3779 0.5906 0.1575, 1.9882 -0.5906 0.1575, 1.3779 -0.5906 0.1575, 1.3779 0.5906 0.0, 1.3779 -0.5906 0.0, 1.9882 0.5906 0.0, 1.9882 -0.5906 0.0, 2.1653 0.5906 0.1772, 2.1653 -0.5906 0.1772, 2.1619 -0.5906 0.1426, 2.1619 0.5906 0.1426, 2.1519 -0.5906 0.1094, 2.1519 0.5906 0.1094, 2.1355 -0.5906 0.0787, 2.1355 0.5906 0.0787, 2.1135 -0.5906 0.0519, 2.1135 0.5906 0.0519, 2.0866 -0.5906 0.0299, 2.0866 0.5906 0.0299, 2.056 -0.5906 0.0135, 2.056 0.5906 0.0135, 2.0227 -0.5906 0.0034, 2.0227 0.5906 0.0034, 2.1653 0.5906 0.8071, 2.1653 -0.5906 0.8071, 1.9882 0.5906 0.9843, 1.9882 -0.5906 0.9843, 2.0227 -0.5906 0.9808, 2.0227 0.5906 0.9808, 2.056 -0.5906 0.9708, 2.056 0.5906 0.9708, 2.0866 -0.5906 0.9544, 2.0866 0.5906 0.9544, 2.1135 -0.5906 0.9324, 2.1135 0.5906 0.9324, 2.1355 -0.5906 0.9055, 2.1355 0.5906 0.9055, 2.1519 -0.5906 0.8749, 2.1519 0.5906 0.8749, 2.1619 -0.5906 0.8417, 2.1619 0.5906 0.8417, 1.9685 0.5906 0.9843, 1.9685 -0.5906 0.9843, 1.9685 0.5906 0.8268, 1.9685 -0.5906 0.8268, 1.9882 0.5906 0.8268, 1.9882 -0.5906 0.8268, 2.0079 0.5906 0.8071, 2.0079 -0.5906 0.8071, 2.0074 0.5906 0.8115, 2.0074 -0.5906 0.8115, 2.0059 0.5906 0.8156, 2.0059 -0.5906 0.8156, 2.0036 0.5906 0.8194, 2.0036 -0.5906 0.8194, 2.0005 0.5906 0.8225, 2.0005 -0.5906 0.8225, 1.9967 0.5906 0.8248, 1.9967 -0.5906 0.8248, 1.9926 0.5906 0.8263, 1.9926 -0.5906 0.8263, 2.0079 0.5906 0.1772, 2.0079 -0.5906 0.1772, 1.9926 0.5906 0.158, 1.9926 -0.5906 0.158, 1.9967 0.5906 0.1594, 1.9967 -0.5906 0.1594, 2.0005 0.5906 0.1618, 2.0005 -0.5906 0.1618, 2.0036 0.5906 0.1649, 2.0036 -0.5906 0.1649, 2.0059 0.5906 0.1686, 2.0059 -0.5906 0.1686, 2.0074 0.5906 0.1728, 2.0074 -0.5906 0.1728
            ]
        }
        coordIndex [
            0,1,2,-1,2,1,3,-1,4,0,5,-1,5,0,2,-1,6,4,7,-1,7,4,5,-1,6,7,8,-1,6,8,9,-1,9,8,10,-1,9,10,11,-1,11,10,12,-1,11,12,13,-1,13,12,14,-1,13,14,15,-1,15,14,16,-1,15,16,17,-1,17,16,18,-1,17,18,19,-1,19,18,20,-1,19,20,21,-1,21,20,22,-1,21,22,23,-1,24,23,25,-1,25,23,22,-1,24,25,26,-1,24,26,27,-1,27,26,28,-1,27,28,29,-1,29,28,30,-1,29,30,31,-1,31,30,32,-1,31,32,33,-1,33,32,34,-1,33,34,35,-1,35,34,36,-1,35,36,37,-1,37,36,38,-1,37,38,39,-1,39,38,40,-1,39,40,41,-1,42,41,43,-1,43,41,40,-1,44,42,45,-1,45,42,43,-1,46,44,47,-1,47,44,45,-1,46,47,48,-1,48,47,49,-1,48,49,50,-1,50,49,51,-1,50,51,52,-1,52,51,53,-1,52,53,54,-1,54,53,55,-1,54,55,56,-1,56,55,57,-1,56,57,58,-1,58,57,59,-1,58,59,60,-1,60,59,61,-1,62,60,63,-1,63,60,61,-1,62,63,64,-1,64,63,65,-1,64,65,66,-1,66,65,67,-1,66,67,68,-1,68,67,69,-1,68,69,70,-1,70,69,71,-1,70,71,72,-1,72,71,73,-1,72,73,74,-1,74,73,75,-1,74,75,1,-1,1,75,3,-1,42,44,41,-1,41,44,46,-1,41,46,39,-1,39,46,48,-1,39,48,37,-1,37,48,50,-1,37,50,35,-1,35,50,52,-1,35,52,33,-1,33,52,54,-1,0,4,1,-1,1,4,6,-1,1,6,74,-1,74,6,9,-1,74,9,72,-1,72,9,11,-1,72,11,70,-1,11,13,70,-1,70,13,15,-1,70,15,68,-1,68,15,17,-1,68,17,66,-1,66,17,19,-1,66,19,64,-1,64,19,21,-1,64,21,62,-1,62,21,23,-1,62,23,60,-1,60,23,24,-1,60,24,58,-1,58,24,27,-1,58,27,56,-1,56,27,29,-1,56,29,54,-1,54,29,31,-1,54,31,33,-1,45,43,47,-1,47,43,40,-1,47,40,49,-1,49,40,38,-1,49,38,51,-1,51,38,36,-1,51,36,53,-1,69,14,71,-1,71,14,12,-1,71,12,73,-1,73,12,10,-1,73,10,75,-1,75,10,8,-1,75,8,3,-1,3,8,7,-1,3,7,2,-1,2,7,5,-1,36,34,53,-1,53,34,32,-1,53,32,55,-1,55,32,30,-1,55,30,57,-1,57,30,28,-1,57,28,59,-1,59,28,26,-1,59,26,61,-1,61,26,25,-1,61,25,63,-1,63,25,22,-1,63,22,65,-1,65,22,20,-1,65,20,67,-1,67,20,18,-1,67,18,69,-1,69,18,16,-1,69,16,14,-1,76,77,78,-1,78,77,79,-1,77,80,79,-1,79,80,81,-1,80,82,81,-1,81,82,83,-1,84,85,86,-1,84,86,87,-1,87,86,88,-1,87,88,89,-1,89,88,90,-1,89,90,91,-1,91,90,92,-1,91,92,93,-1,93,92,94,-1,93,94,95,-1,95,94,96,-1,95,96,97,-1,97,96,98,-1,97,98,99,-1,99,98,83,-1,99,83,82,-1,84,100,85,-1,85,100,101,-1,102,103,104,-1,102,104,105,-1,105,104,106,-1,105,106,107,-1,107,106,108,-1,107,108,109,-1,109,108,110,-1,109,110,111,-1,111,110,112,-1,111,112,113,-1,113,112,114,-1,113,114,115,-1,115,114,116,-1,115,116,117,-1,117,116,101,-1,117,101,100,-1,102,118,103,-1,103,118,119,-1,118,120,119,-1,119,120,121,-1,120,122,121,-1,121,122,123,-1,124,125,126,-1,126,125,127,-1,126,127,128,-1,128,127,129,-1,128,129,130,-1,130,129,131,-1,130,131,132,-1,132,131,133,-1,132,133,134,-1,134,133,135,-1,134,135,136,-1,136,135,137,-1,136,137,122,-1,122,137,123,-1,124,138,125,-1,125,138,139,-1,76,78,140,-1,140,78,141,-1,140,141,142,-1,142,141,143,-1,142,143,144,-1,144,143,145,-1,144,145,146,-1,146,145,147,-1,146,147,148,-1,148,147,149,-1,148,149,150,-1,150,149,151,-1,150,151,138,-1,138,151,139,-1,120,118,122,-1,122,118,102,-1,122,102,136,-1,136,102,105,-1,136,105,134,-1,134,105,107,-1,134,107,132,-1,146,93,144,-1,144,93,95,-1,144,95,142,-1,142,95,97,-1,142,97,140,-1,140,97,99,-1,140,99,76,-1,76,99,82,-1,76,82,77,-1,77,82,80,-1,107,109,132,-1,132,109,111,-1,132,111,130,-1,130,111,113,-1,130,113,128,-1,128,113,115,-1,128,115,126,-1,126,115,117,-1,126,117,124,-1,124,117,100,-1,124,100,138,-1,138,100,84,-1,138,84,150,-1,150,84,87,-1,150,87,148,-1,148,87,89,-1,148,89,146,-1,146,89,91,-1,146,91,93,-1,119,121,103,-1,103,121,123,-1,103,123,104,-1,104,123,137,-1,104,137,106,-1,106,137,135,-1,106,135,108,-1,108,135,133,-1,108,133,110,-1,110,133,131,-1,79,81,78,-1,78,81,83,-1,78,83,141,-1,141,83,98,-1,141,98,143,-1,143,98,96,-1,143,96,145,-1,96,94,145,-1,145,94,92,-1,145,92,147,-1,147,92,90,-1,147,90,149,-1,149,90,88,-1,149,88,151,-1,151,88,86,-1,151,86,139,-1,139,86,85,-1,139,85,125,-1,125,85,101,-1,125,101,127,-1,127,101,116,-1,127,116,129,-1,129,116,114,-1,129,114,131,-1,131,114,112,-1,131,112,110,-1,
        ]
    }
}
Shape{
    appearance Appearance {
        material  Material 	{
            diffuseColor 0.34901960784313724 0.34901960784313724 0.34901960784313724
            specularColor 0.023529411764705882 0.023529411764705882 0.023529411764705882
            ambientIntensity 0.498
            transparency 0.0
            shininess 0.5
        }
    }
    geometry IndexedFaceSet {
        ccw TRUE
        solid FALSE
        coord DEF co Coordinate {
            point [
                0.3371 0.132 0.0, 0.3758 0.1276 0.0, 0.2519 -0.1636 0.0, 1.0236 0.8268 0.0, 0.2064 1.9685 0.0, 1.9685 0.8268 0.0, 1.7716 1.9685 0.0, 1.9685 1.7717 0.0, 1.8154 1.9636 0.0, 1.8571 1.949 0.0, 1.8944 1.9256 0.0, 1.9255 1.8944 0.0, 1.949 1.8571 0.0, 1.9636 1.8155 0.0, 0.773 -0.2233 0.0, 0.3763 -0.2257 0.0, 0.5713 -0.2233 0.0, 0.4017 -0.2231 0.0, 0.4399 -0.21 0.0, 0.4053 0.117 0.0, 0.4325 0.0988 0.0, 0.4563 0.0725 0.0, 0.4849 -0.0307 0.0, 0.4809 -0.0733 0.0, 0.4702 -0.1072 0.0, 0.3826 -0.1808 0.0, 0.3459 -0.1849 0.0, 0.4113 -0.1702 0.0, 0.4355 -0.1539 0.0, 0.4539 -0.1345 0.0, 0.2936 -0.1791 0.0, 0.2892 0.1258 0.0, 0.2449 -0.1597 0.0, 0.2449 0.1068 0.0, 0.2449 0.1596 0.0, 0.4725 0.0421 0.0, 0.483 -0.0 0.0, 0.4715 -0.1897 0.0, 0.5011 -0.1586 0.0, 0.5713 -0.1801 0.0, 0.5221 -0.1212 0.0, 0.7202 -0.1801 0.0, 0.4938 0.1036 0.0, 0.4582 0.1378 0.0, 0.4208 0.1593 0.0, 0.3769 0.172 0.0, 0.5339 -0.0795 0.0, 0.5377 -0.0339 0.0, 0.7202 0.1704 0.0, 0.5321 0.0221 0.0, 0.5169 0.0668 0.0, 0.3375 0.1752 0.0, 0.2904 0.1719 0.0, 0.2449 -0.2029 0.0, 0.2868 -0.2201 0.0, 0.2064 -0.2257 0.0, 0.3266 -0.2257 0.0, 0.2064 -1.9685 0.0, 1.7716 -1.9685 0.0, 1.9685 -0.8268 0.0, 1.9685 -1.7717 0.0, 1.0236 -0.8268 0.0, 0.3424 -0.2279 0.0, 0.3532 -0.2281 0.0, 1.0236 -0.2257 0.0, 0.773 0.1704 0.0, 1.9636 -1.8155 0.0, 1.949 -1.8571 0.0, 1.8154 -1.9636 0.0, 1.9255 -1.8944 0.0, 1.8944 -1.9256 0.0, 1.8571 -1.949 0.0, -0.7634 -0.2233 0.0, -0.7236 -0.1129 0.0, -0.5609 -0.1129 0.0, -0.0432 -0.2233 0.0, 0.168 -0.2233 0.0, 0.168 0.1704 0.0, -0.5233 -0.2233 0.0, -1.0236 -0.2257 0.0, -0.821 -0.2233 0.0, -0.4173 -0.1154 0.0, -0.3947 -0.1506 0.0, -0.4657 -0.2233 0.0, -0.3623 -0.1817 0.0, -0.3212 -0.2055 0.0, 0.1152 0.1272 0.0, 0.1152 -0.0025 0.0, -0.0336 0.1272 0.0, -0.024 -0.0025 0.0, -0.12 0.1704 0.0, -0.024 -0.0457 0.0, 0.1152 -0.0457 0.0, 0.1152 -0.1801 0.0, -0.0432 -0.1801 0.0, -0.12 -0.2233 0.0, -0.2271 -0.2233 0.0, -0.2758 -0.2191 0.0, -1.9685 0.8268 0.0, -1.9685 1.7717 0.0, -1.0236 0.8268 0.0, -1.9636 1.8155 0.0, -0.288 0.1643 0.0, -0.334 0.1481 0.0, -0.6146 0.1704 0.0, -0.3769 0.1194 0.0, -0.2311 0.1704 0.0, -0.0336 0.1704 0.0, -0.3775 0.119 0.0, -0.4053 0.0881 0.0, -0.4235 0.0542 0.0, -0.6674 0.1704 0.0, -1.8944 1.9256 0.0, -1.8571 1.949 0.0, -1.8155 1.9636 0.0, -1.7717 1.9685 0.0, -0.4341 0.0154 0.0, -0.4369 -0.0215 0.0, -0.4314 -0.0742 0.0, -1.949 1.8571 0.0, -1.9256 1.8944 0.0, -1.0236 -0.8268 0.0, -1.9685 -0.8268 0.0, -1.7717 -1.9685 0.0, -1.9685 -1.7717 0.0, -1.9636 -1.8155 0.0, -1.8944 -1.9256 0.0, -1.9256 -1.8944 0.0, -1.949 -1.8571 0.0, -1.8571 -1.949 0.0, -1.8155 -1.9636 0.0, 1.9685 0.6693 0.1575, 1.9685 1.7717 1.5748, 1.9685 -0.6693 0.1575, 1.9685 -1.7717 1.5748, -1.9685 -1.7717 1.5748, -1.9636 -1.8155 1.5748, -1.949 -1.8571 1.5748, -1.9256 -1.8944 1.5748, -1.8944 -1.9256 1.5748, -1.8571 -1.949 1.5748, -1.8155 -1.9636 1.5748, -1.7717 -1.9685 1.5748, 1.7716 -1.9685 1.5748, 1.8154 -1.9636 1.5748, 1.8571 -1.949 1.5748, 1.8944 -1.9256 1.5748, 1.9255 -1.8944 1.5748, 1.949 -1.8571 1.5748, 1.9636 -1.8155 1.5748, 1.9636 1.8155 1.5748, 1.949 1.8571 1.5748, 1.9255 1.8944 1.5748, 1.8944 1.9256 1.5748, 1.8571 1.949 1.5748, 1.8154 1.9636 1.5748, 1.7716 1.9685 1.5748, -1.7717 1.9685 1.5748, -1.8155 1.9636 1.5748, -1.8571 1.949 1.5748, -1.8944 1.9256 1.5748, -1.9256 1.8944 1.5748, -1.949 1.8571 1.5748, -1.9636 1.8155 1.5748, -1.9685 1.7717 1.5748, -1.9685 -0.6693 0.1575, -1.9685 0.6693 0.1575, -1.1811 0.6693 0.1575, -1.1811 -0.6693 0.1575, 1.1811 -0.6693 0.1575, 1.1811 0.6693 0.1575
            ]
        }
        coordIndex [
            0,1,2,-1,3,4,5,-1,5,4,6,-1,5,6,7,-1,8,9,6,-1,6,9,10,-1,6,10,11,-1,11,12,6,-1,6,12,13,-1,6,13,7,-1,14,15,16,-1,16,15,17,-1,16,17,18,-1,1,19,2,-1,2,19,20,-1,2,20,21,-1,22,23,2,-1,2,23,24,-1,25,26,27,-1,27,26,28,-1,24,29,2,-1,2,29,28,-1,2,28,30,-1,30,28,26,-1,0,2,31,-1,31,2,32,-1,31,32,33,-1,33,32,4,-1,33,4,34,-1,21,35,2,-1,2,35,36,-1,2,36,22,-1,18,37,16,-1,16,37,38,-1,16,38,39,-1,39,38,40,-1,39,40,41,-1,42,43,4,-1,4,43,44,-1,4,44,45,-1,40,46,41,-1,41,46,47,-1,41,47,48,-1,48,47,49,-1,48,49,50,-1,45,51,4,-1,4,51,52,-1,4,52,34,-1,53,54,55,-1,55,54,56,-1,55,56,57,-1,58,59,60,-1,59,58,61,-1,56,62,57,-1,57,62,63,-1,57,63,15,-1,58,57,61,-1,61,57,15,-1,61,15,64,-1,64,15,14,-1,64,14,3,-1,3,14,65,-1,3,65,4,-1,4,65,48,-1,4,48,42,-1,42,48,50,-1,60,66,58,-1,58,66,67,-1,58,67,68,-1,69,70,67,-1,67,70,71,-1,67,71,68,-1,72,73,74,-1,75,76,55,-1,55,76,77,-1,74,78,72,-1,72,78,79,-1,72,79,80,-1,81,82,83,-1,83,82,84,-1,83,84,85,-1,86,87,88,-1,88,87,89,-1,88,89,90,-1,90,89,91,-1,92,93,91,-1,91,93,94,-1,91,94,90,-1,90,94,75,-1,90,75,95,-1,95,75,55,-1,95,55,96,-1,96,55,83,-1,96,83,97,-1,97,83,85,-1,98,99,100,-1,100,99,101,-1,102,103,104,-1,104,103,105,-1,106,100,90,-1,90,100,107,-1,90,107,88,-1,105,108,104,-1,104,108,109,-1,104,109,110,-1,80,79,111,-1,111,79,100,-1,111,100,104,-1,104,100,106,-1,104,106,102,-1,112,113,100,-1,100,113,114,-1,100,114,107,-1,107,114,115,-1,107,115,77,-1,77,115,4,-1,77,4,55,-1,55,4,32,-1,55,32,53,-1,110,116,104,-1,104,116,117,-1,104,117,83,-1,83,117,118,-1,83,118,81,-1,101,119,100,-1,100,119,120,-1,100,120,112,-1,78,83,79,-1,79,83,55,-1,79,55,121,-1,121,55,57,-1,121,57,122,-1,122,57,123,-1,122,123,124,-1,124,123,125,-1,126,127,128,-1,126,128,129,-1,125,123,128,-1,128,123,130,-1,128,130,129,-1,5,7,131,-1,131,7,132,-1,131,132,133,-1,133,132,134,-1,133,134,59,-1,59,134,60,-1,135,124,125,-1,135,125,136,-1,136,125,128,-1,136,128,137,-1,137,128,127,-1,137,127,138,-1,138,127,126,-1,138,126,139,-1,139,126,129,-1,139,129,140,-1,140,129,130,-1,140,130,141,-1,141,130,123,-1,141,123,142,-1,142,123,143,-1,143,123,57,-1,143,57,58,-1,143,58,68,-1,143,68,144,-1,144,68,71,-1,144,71,145,-1,145,71,70,-1,145,70,146,-1,146,70,69,-1,146,69,147,-1,147,69,67,-1,147,67,148,-1,148,67,66,-1,148,66,149,-1,149,66,60,-1,149,60,134,-1,132,7,13,-1,132,13,150,-1,150,13,12,-1,150,12,151,-1,151,12,11,-1,151,11,152,-1,152,11,10,-1,152,10,153,-1,153,10,9,-1,153,9,154,-1,154,9,8,-1,154,8,155,-1,155,8,6,-1,155,6,156,-1,115,157,4,-1,4,157,156,-1,4,156,6,-1,157,115,114,-1,157,114,158,-1,158,114,113,-1,158,113,159,-1,159,113,112,-1,159,112,160,-1,160,112,120,-1,160,120,161,-1,161,120,119,-1,161,119,162,-1,162,119,101,-1,162,101,163,-1,163,101,99,-1,163,99,164,-1,122,124,165,-1,165,124,135,-1,165,135,166,-1,166,135,164,-1,166,164,98,-1,98,164,99,-1,164,135,142,-1,142,143,132,-1,151,152,156,-1,139,140,141,-1,148,143,144,-1,148,149,143,-1,143,149,134,-1,143,134,132,-1,164,142,157,-1,157,142,132,-1,157,132,156,-1,156,132,150,-1,156,150,151,-1,152,153,156,-1,156,153,154,-1,156,154,155,-1,158,159,157,-1,157,159,160,-1,157,160,161,-1,135,136,142,-1,142,136,137,-1,142,137,141,-1,141,137,138,-1,141,138,139,-1,161,162,157,-1,157,162,163,-1,157,163,164,-1,144,145,148,-1,148,145,146,-1,148,146,147,-1,167,168,166,-1,166,168,165,-1,100,167,98,-1,98,167,166,-1,167,100,168,-1,168,100,79,-1,168,79,121,-1,122,165,121,-1,121,165,168,-1,169,170,133,-1,133,170,131,-1,170,3,131,-1,131,3,5,-1,3,170,64,-1,64,170,169,-1,64,169,61,-1,133,59,169,-1,169,59,61,-1,
        ]
    }
}
Shape{
    appearance Appearance {
        material  Material 	{
            diffuseColor 1.0 1.0 1.0
            specularColor 0.8784313725490196 0.8784313725490196 0.8784313725490196
            ambientIntensity 1.0
            transparency 0.0
            shininess 0.5
        }
    }
    geometry IndexedFaceSet {
        ccw TRUE
        solid FALSE
        coord DEF co Coordinate {
            point [
                -0.6674 0.1704 0.0079, -0.821 -0.2233 0.0079, -0.6674 0.1704 0.0, -0.821 -0.2233 0.0, -0.7634 -0.2233 0.0079, -0.7634 -0.2233 0.0, -0.7236 -0.1129 0.0079, -0.7236 -0.1129 0.0, -0.5609 -0.1129 0.0079, -0.5609 -0.1129 0.0, -0.5233 -0.2233 0.0079, -0.5233 -0.2233 0.0, -0.4657 -0.2233 0.0079, -0.4657 -0.2233 0.0, -0.6146 0.1704 0.0079, -0.6146 0.1704 0.0, -0.5742 -0.0697 0.0079, -0.7059 -0.0697 0.0079, -0.6329 0.0948 0.0079, -0.6367 0.1084 0.0079, -0.6392 0.1224 0.0079, -0.6405 0.1224 0.0079, -0.6431 0.1085 0.0079, -0.6466 0.0948 0.0079, -0.5742 -0.0697 0.0, -0.7059 -0.0697 0.0, -0.6329 0.0948 0.0, -0.6367 0.1084 0.0, -0.6392 0.1224 0.0, -0.6405 0.1224 0.0, -0.6431 0.1085 0.0, -0.6466 0.0948 0.0, -0.2271 -0.2233 0.0079, -0.12 -0.2233 0.0079, -0.2271 -0.2233 0.0, -0.12 -0.2233 0.0, -0.12 0.1704 0.0079, -0.12 0.1704 0.0, -0.2311 0.1704 0.0079, -0.2311 0.1704 0.0, -0.4369 -0.0215 0.0079, -0.4369 -0.0215 0.0, -0.4341 0.0154 0.0, -0.4341 0.0154 0.0079, -0.4235 0.0542 0.0, -0.4235 0.0542 0.0079, -0.4053 0.0881 0.0, -0.4053 0.0881 0.0079, -0.3775 0.119 0.0, -0.3775 0.119 0.0079, -0.3769 0.1194 0.0, -0.3769 0.1194 0.0079, -0.334 0.1481 0.0, -0.334 0.1481 0.0079, -0.288 0.1643 0.0, -0.288 0.1643 0.0079, -0.2758 -0.2191 0.0, -0.2758 -0.2191 0.0079, -0.3212 -0.2055 0.0, -0.3212 -0.2055 0.0079, -0.3623 -0.1817 0.0, -0.3623 -0.1817 0.0079, -0.3947 -0.1506 0.0, -0.3947 -0.1506 0.0079, -0.4173 -0.1154 0.0, -0.4173 -0.1154 0.0079, -0.4314 -0.0742 0.0, -0.4314 -0.0742 0.0079, -0.3579 0.072 0.0079, -0.3388 0.0923 0.0079, -0.31 0.1108 0.0079, -0.2775 0.1222 0.0079, -0.2309 0.1272 0.0079, -0.1729 0.1272 0.0079, -0.1729 -0.1801 0.0079, -0.2287 -0.1801 0.0079, -0.2703 -0.1762 0.0079, -0.3034 -0.1659 0.0079, -0.3303 -0.15 0.0079, -0.3523 -0.1281 0.0079, -0.3689 -0.101 0.0079, -0.3805 -0.064 0.0079, -0.3841 -0.0226 0.0079, -0.3808 0.0165 0.0079, -0.3716 0.0477 0.0079, -0.2309 0.1272 0.0, -0.1729 0.1272 0.0, -0.2775 0.1222 0.0, -0.31 0.1108 0.0, -0.3388 0.0923 0.0, -0.3579 0.072 0.0, -0.3716 0.0477 0.0, -0.3808 0.0165 0.0, -0.3841 -0.0226 0.0, -0.3805 -0.064 0.0, -0.3689 -0.101 0.0, -0.3523 -0.1281 0.0, -0.3303 -0.15 0.0, -0.3034 -0.1659 0.0, -0.2703 -0.1762 0.0, -0.2287 -0.1801 0.0, -0.1729 -0.1801 0.0, -0.0432 -0.1801 0.0079, -0.0432 -0.2233 0.0079, -0.0432 -0.1801 0.0, -0.0432 -0.2233 0.0, 0.168 -0.2233 0.0079, 0.168 -0.2233 0.0, 0.168 0.1704 0.0079, 0.168 0.1704 0.0, -0.0336 0.1704 0.0079, -0.0336 0.1704 0.0, -0.0336 0.1272 0.0079, -0.0336 0.1272 0.0, 0.1152 0.1272 0.0079, 0.1152 0.1272 0.0, 0.1152 -0.0025 0.0079, 0.1152 -0.0025 0.0, -0.024 -0.0025 0.0079, -0.024 -0.0025 0.0, -0.024 -0.0457 0.0079, -0.024 -0.0457 0.0, 0.1152 -0.0457 0.0079, 0.1152 -0.0457 0.0, 0.1152 -0.1801 0.0079, 0.1152 -0.1801 0.0, 0.2449 -0.1597 0.0079, 0.2449 -0.2029 0.0079, 0.2449 -0.1597 0.0, 0.2449 -0.2029 0.0, 0.2868 -0.2201 0.0079, 0.3532 -0.2281 0.0079, 0.3532 -0.2281 0.0, 0.3424 -0.2279 0.0, 0.3424 -0.2279 0.0079, 0.3266 -0.2257 0.0, 0.2868 -0.2201 0.0, 0.5377 -0.0339 0.0079, 0.5377 -0.0339 0.0, 0.5339 -0.0795 0.0, 0.5339 -0.0795 0.0079, 0.5221 -0.1212 0.0, 0.5221 -0.1212 0.0079, 0.5011 -0.1586 0.0, 0.5011 -0.1586 0.0079, 0.4715 -0.1897 0.0, 0.4715 -0.1897 0.0079, 0.4399 -0.21 0.0, 0.4399 -0.21 0.0079, 0.4017 -0.2231 0.0, 0.4017 -0.2231 0.0079, 0.3763 -0.2257 0.0, 0.3375 0.1752 0.0079, 0.3375 0.1752 0.0, 0.3769 0.172 0.0, 0.3769 0.172 0.0079, 0.4208 0.1593 0.0, 0.4208 0.1593 0.0079, 0.4582 0.1378 0.0, 0.4582 0.1378 0.0079, 0.4938 0.1036 0.0, 0.4938 0.1036 0.0079, 0.5169 0.0668 0.0, 0.5169 0.0668 0.0079, 0.5321 0.0221 0.0, 0.5321 0.0221 0.0079, 0.2449 0.1596 0.0079, 0.2449 0.1596 0.0, 0.2904 0.1719 0.0, 0.2904 0.1719 0.0079, 0.2449 0.1068 0.0079, 0.2449 0.1068 0.0, 0.3371 0.132 0.0079, 0.3371 0.132 0.0, 0.2892 0.1258 0.0, 0.2892 0.1258 0.0079, 0.4849 -0.0307 0.0079, 0.4849 -0.0307 0.0, 0.483 -0.0 0.0, 0.483 -0.0 0.0079, 0.4725 0.0421 0.0, 0.4725 0.0421 0.0079, 0.4563 0.0725 0.0, 0.4563 0.0725 0.0079, 0.4325 0.0988 0.0, 0.4325 0.0988 0.0079, 0.4053 0.117 0.0, 0.4053 0.117 0.0079, 0.3758 0.1276 0.0, 0.3758 0.1276 0.0079, 0.3459 -0.1849 0.0079, 0.3459 -0.1849 0.0, 0.3826 -0.1808 0.0, 0.3826 -0.1808 0.0079, 0.4113 -0.1702 0.0, 0.4113 -0.1702 0.0079, 0.4355 -0.1539 0.0, 0.4355 -0.1539 0.0079, 0.4539 -0.1345 0.0, 0.4539 -0.1345 0.0079, 0.4702 -0.1072 0.0, 0.4702 -0.1072 0.0079, 0.4809 -0.0733 0.0, 0.4809 -0.0733 0.0079, 0.2519 -0.1636 0.0, 0.2519 -0.1636 0.0079, 0.2936 -0.1791 0.0, 0.2936 -0.1791 0.0079, 0.5713 -0.1801 0.0079, 0.5713 -0.2233 0.0079, 0.5713 -0.1801 0.0, 0.5713 -0.2233 0.0, 0.773 -0.2233 0.0079, 0.773 -0.2233 0.0, 0.773 0.1704 0.0079, 0.773 0.1704 0.0, 0.7202 0.1704 0.0079, 0.7202 0.1704 0.0, 0.7202 -0.1801 0.0079, 0.7202 -0.1801 0.0
            ]
        }
        coordIndex [
            0,1,2,-1,2,1,3,-1,1,4,3,-1,3,4,5,-1,4,6,5,-1,5,6,7,-1,6,8,7,-1,7,8,9,-1,8,10,9,-1,9,10,11,-1,10,12,11,-1,11,12,13,-1,12,14,13,-1,13,14,15,-1,14,0,15,-1,15,0,2,-1,16,8,17,-1,17,8,6,-1,18,14,16,-1,16,14,12,-1,16,12,8,-1,8,12,10,-1,18,19,14,-1,14,19,20,-1,14,20,0,-1,0,20,21,-1,0,21,22,-1,22,23,0,-1,0,23,17,-1,0,17,1,-1,1,17,6,-1,1,6,4,-1,16,17,24,-1,24,17,25,-1,18,16,26,-1,26,16,24,-1,18,26,27,-1,18,27,19,-1,19,27,28,-1,19,28,20,-1,21,20,29,-1,29,20,28,-1,21,29,30,-1,21,30,22,-1,22,30,31,-1,22,31,23,-1,17,23,25,-1,25,23,31,-1,32,33,34,-1,34,33,35,-1,33,36,35,-1,35,36,37,-1,36,38,37,-1,37,38,39,-1,40,41,42,-1,40,42,43,-1,43,42,44,-1,43,44,45,-1,45,44,46,-1,45,46,47,-1,47,46,48,-1,47,48,49,-1,49,48,50,-1,49,50,51,-1,51,50,52,-1,51,52,53,-1,53,52,54,-1,53,54,55,-1,55,54,39,-1,55,39,38,-1,32,34,56,-1,32,56,57,-1,57,56,58,-1,57,58,59,-1,59,58,60,-1,59,60,61,-1,61,60,62,-1,61,62,63,-1,63,62,64,-1,63,64,65,-1,65,64,66,-1,65,66,67,-1,67,66,41,-1,67,41,40,-1,45,47,68,-1,68,47,49,-1,68,49,69,-1,69,49,51,-1,69,51,70,-1,70,51,53,-1,70,53,71,-1,71,53,55,-1,71,55,72,-1,72,55,38,-1,72,38,73,-1,73,38,36,-1,73,36,74,-1,74,36,33,-1,74,33,75,-1,75,33,32,-1,75,32,76,-1,76,32,57,-1,76,57,77,-1,77,57,59,-1,77,59,78,-1,78,59,61,-1,78,61,79,-1,79,61,63,-1,79,63,80,-1,80,63,65,-1,80,65,81,-1,81,65,67,-1,81,67,82,-1,82,67,40,-1,82,40,83,-1,83,40,43,-1,83,43,84,-1,84,43,45,-1,84,45,68,-1,72,73,85,-1,85,73,86,-1,72,85,87,-1,72,87,71,-1,71,87,88,-1,71,88,70,-1,70,88,89,-1,70,89,69,-1,69,89,90,-1,69,90,68,-1,68,90,91,-1,68,91,84,-1,84,91,92,-1,84,92,83,-1,83,92,93,-1,83,93,82,-1,82,93,94,-1,82,94,81,-1,81,94,95,-1,81,95,80,-1,80,95,96,-1,80,96,79,-1,79,96,97,-1,79,97,78,-1,78,97,98,-1,78,98,77,-1,77,98,99,-1,77,99,76,-1,76,99,100,-1,76,100,75,-1,74,75,101,-1,101,75,100,-1,73,74,86,-1,86,74,101,-1,102,103,104,-1,104,103,105,-1,103,106,105,-1,105,106,107,-1,106,108,107,-1,107,108,109,-1,108,110,109,-1,109,110,111,-1,110,112,111,-1,111,112,113,-1,112,114,113,-1,113,114,115,-1,114,116,115,-1,115,116,117,-1,116,118,117,-1,117,118,119,-1,118,120,119,-1,119,120,121,-1,120,122,121,-1,121,122,123,-1,122,124,123,-1,123,124,125,-1,124,102,125,-1,125,102,104,-1,106,103,102,-1,102,124,106,-1,106,124,122,-1,106,122,108,-1,112,110,114,-1,114,110,108,-1,114,108,116,-1,116,108,122,-1,116,122,118,-1,118,122,120,-1,126,127,128,-1,128,127,129,-1,129,127,130,-1,131,132,133,-1,131,133,134,-1,134,133,135,-1,134,135,130,-1,130,135,136,-1,130,136,129,-1,137,138,139,-1,137,139,140,-1,140,139,141,-1,140,141,142,-1,142,141,143,-1,142,143,144,-1,144,143,145,-1,144,145,146,-1,146,145,147,-1,146,147,148,-1,148,147,149,-1,148,149,150,-1,150,149,131,-1,131,149,151,-1,131,151,132,-1,152,153,154,-1,152,154,155,-1,155,154,156,-1,155,156,157,-1,157,156,158,-1,157,158,159,-1,159,158,160,-1,159,160,161,-1,161,160,162,-1,161,162,163,-1,163,162,164,-1,163,164,165,-1,165,164,138,-1,165,138,137,-1,166,167,168,-1,166,168,169,-1,169,168,153,-1,169,153,152,-1,166,170,167,-1,167,170,171,-1,172,173,174,-1,172,174,175,-1,175,174,171,-1,175,171,170,-1,176,177,178,-1,176,178,179,-1,179,178,180,-1,179,180,181,-1,181,180,182,-1,181,182,183,-1,183,182,184,-1,183,184,185,-1,185,184,186,-1,185,186,187,-1,187,186,188,-1,187,188,189,-1,189,188,173,-1,189,173,172,-1,190,191,192,-1,190,192,193,-1,193,192,194,-1,193,194,195,-1,195,194,196,-1,195,196,197,-1,197,196,198,-1,197,198,199,-1,199,198,200,-1,199,200,201,-1,201,200,202,-1,201,202,203,-1,203,202,177,-1,203,177,176,-1,126,128,204,-1,126,204,205,-1,205,204,206,-1,205,206,207,-1,207,206,191,-1,207,191,190,-1,193,131,190,-1,190,131,134,-1,190,134,207,-1,207,134,130,-1,207,130,205,-1,205,130,127,-1,205,127,126,-1,170,166,175,-1,175,166,169,-1,175,169,172,-1,172,169,152,-1,172,152,189,-1,189,152,155,-1,189,155,187,-1,187,155,157,-1,187,157,185,-1,185,157,159,-1,185,159,183,-1,183,159,161,-1,183,161,181,-1,181,161,163,-1,181,163,179,-1,179,163,165,-1,179,165,176,-1,176,165,137,-1,176,137,203,-1,203,137,140,-1,203,140,201,-1,201,140,142,-1,201,142,199,-1,199,142,144,-1,199,144,197,-1,197,144,146,-1,197,146,195,-1,195,146,148,-1,195,148,193,-1,193,148,150,-1,193,150,131,-1,208,209,210,-1,210,209,211,-1,209,212,211,-1,211,212,213,-1,212,214,213,-1,213,214,215,-1,214,216,215,-1,215,216,217,-1,216,218,217,-1,217,218,219,-1,218,208,219,-1,219,208,210,-1,216,214,218,-1,218,214,212,-1,218,212,208,-1,208,212,209,-1,
        ]
    }
}
Shape{
    appearance Appearance {
        material  Material 	{
            diffuseColor 0.34901960784313724 0.34901960784313724 0.34901960784313724
            specularColor 0.023529411764705882 0.023529411764705882 0.023529411764705882
            ambientIntensity 0.498
            transparency 0.0
            shininess 0.5
        }
    }
    geometry IndexedFaceSet {
        ccw TRUE
        solid FALSE
        coord DEF co Coordinate {
            point [
                -0.5742 -0.0697 0.0, -0.7059 -0.0697 0.0, -0.6329 0.0948 0.0, -0.6466 0.0948 0.0, -0.6367 0.1084 0.0, -0.6431 0.1085 0.0, -0.6392 0.1224 0.0, -0.6405 0.1224 0.0, -0.1729 0.1272 0.0, -0.1729 -0.1801 0.0, -0.2309 0.1272 0.0, -0.2287 -0.1801 0.0, -0.2703 -0.1762 0.0, -0.3841 -0.0226 0.0, -0.3808 0.0165 0.0, -0.3716 0.0477 0.0, -0.2775 0.1222 0.0, -0.3034 -0.1659 0.0, -0.3303 -0.15 0.0, -0.3523 -0.1281 0.0, -0.3689 -0.101 0.0, -0.3805 -0.064 0.0, -0.3579 0.072 0.0, -0.3388 0.0923 0.0, -0.31 0.1108 0.0
            ]
        }
        coordIndex [
            0,1,2,-1,2,1,3,-1,2,3,4,-1,4,3,5,-1,4,5,6,-1,6,5,7,-1,8,9,10,-1,10,9,11,-1,10,11,12,-1,13,14,10,-1,10,14,15,-1,10,15,16,-1,12,17,10,-1,10,17,18,-1,10,18,19,-1,19,20,10,-1,10,20,21,-1,10,21,13,-1,22,23,15,-1,15,23,24,-1,15,24,16,-1,
        ]
    }
}